<?xml version="1.0" encoding="utf-8"?>
<!-- Uploaded to: SVG Repo, www.svgrepo.com, Generator: SVG Repo Mixer Tools -->
<svg fill="#000000" width="800px" height="800px" viewBox="0 0 32 32" version="1.1" xmlns="http://www.w3.org/2000/svg">
<title>digitalocean</title>
<path d="M5.787 25.2v-3.721h-3.72v3.721zM10.239 25.2h-4.451v4.454h4.451zM16.050 1.004c-0.009-0-0.020-0-0.030-0-8.281 0-14.996 6.706-15.009 14.984v0.001h5.796c0.022-5.082 4.147-9.193 9.232-9.193 1.203 0 2.353 0.23 3.407 0.649l-0.062-0.022c2.414 0.898 4.284 2.769 5.163 5.123l0.020 0.060c0.399 0.994 0.631 2.146 0.631 3.352 0 5.078-4.104 9.198-9.176 9.224h-0.003v-5.761h-5.777v5.777h5.761v5.796c8.293-0.019 15.008-6.746 15.008-15.042 0-1.695-0.28-3.325-0.797-4.846l0.031 0.106c-1.459-4.518-4.948-8.007-9.363-9.437l-0.103-0.029c-1.412-0.462-3.037-0.734-4.724-0.744l-0.005-0z"></path>
</svg>