<?xml version="1.0" standalone="no"?>
<!DOCTYPE svg PUBLIC "-//W3C//DTD SVG 20010904//EN"
 "http://www.w3.org/TR/2001/REC-SVG-20010904/DTD/svg10.dtd">
<svg version="1.0" xmlns="http://www.w3.org/2000/svg"
 width="180.000000pt" height="180.000000pt" viewBox="0 0 180.000000 180.000000"
 preserveAspectRatio="xMidYMid meet">
<metadata>
Created by potrace 1.14, written by Peter Selinger 2001-2017
</metadata>
<g transform="translate(0.000000,180.000000) scale(0.100000,-0.100000)"
fill="#000000" stroke="none">
<path d="M370 1758 c-7 -24 -19 -63 -27 -88 -14 -42 -34 -112 -69 -239 -8 -30
-18 -60 -23 -65 -4 -6 -13 -31 -20 -56 -26 -90 -60 -182 -125 -332 -9 -20 -16
-41 -16 -47 0 -11 -59 -146 -80 -183 -6 -11 -10 -162 -10 -383 l0 -365 900 0
900 0 0 900 0 900 -708 0 -709 0 -13 -42z m400 -267 c82 -38 134 -97 158 -178
7 -24 17 -43 21 -43 5 0 11 21 14 47 4 40 12 53 57 95 77 72 119 90 210 92 71
1 80 -1 114 -29 68 -54 115 -107 127 -143 19 -57 6 -237 -21 -297 -21 -46 -85
-125 -102 -125 -4 0 -19 -5 -33 -10 -22 -8 -25 -13 -16 -24 7 -8 24 -17 38
-21 15 -3 57 -24 93 -46 36 -21 71 -39 78 -39 13 0 81 -42 102 -64 22 -23 43
-44 84 -81 59 -54 50 -65 -46 -65 -46 1 -114 5 -153 10 -38 6 -123 14 -187 19
-65 5 -121 12 -126 15 -14 9 -552 28 -584 21 -16 -4 -27 -12 -25 -18 4 -14
114 -24 332 -31 88 -2 175 -10 193 -16 19 -7 52 -10 76 -7 52 7 76 -4 57 -27
-8 -9 -19 -16 -25 -16 -7 0 -30 -13 -52 -29 -54 -39 -198 -92 -260 -96 -67 -5
-124 9 -214 52 -51 23 -81 45 -92 64 -10 17 -28 31 -45 34 -55 12 -118 41
-118 55 0 9 16 17 43 22 72 12 70 21 -8 36 -141 26 -145 27 -148 45 -6 31 51
68 159 103 57 19 118 34 134 34 17 1 41 7 55 15 14 8 34 14 45 15 33 0 95 20
95 30 0 14 -34 12 -48 -2 -14 -14 -33 -18 -90 -19 -130 -2 -263 49 -321 123
-28 35 -51 113 -51 171 0 58 33 173 56 196 8 9 25 31 37 50 29 45 63 69 128
93 71 25 193 20 259 -11z"/>
<path d="M468 1273 c-18 -19 -27 -41 -29 -70 -3 -38 0 -45 35 -72 43 -34 49
-36 77 -21 13 8 19 21 19 45 0 31 3 35 25 35 15 0 29 8 36 21 17 32 -34 80
-92 86 -39 4 -47 1 -71 -24z"/>
<path d="M1096 1265 c-35 -38 -42 -78 -19 -118 24 -41 65 -48 99 -16 24 22 24
22 3 37 -26 18 -8 47 21 32 27 -14 32 1 16 46 -12 36 -16 39 -54 42 -35 3 -46
-1 -66 -23z"/>
<path d="M899 1019 c-13 -17 -36 -43 -51 -57 -16 -15 -28 -32 -28 -39 0 -20
43 11 60 42 8 14 24 28 37 31 24 6 29 20 15 41 -6 9 -15 4 -33 -18z"/>
<path d="M1138 943 c7 -3 16 -2 19 1 4 3 -2 6 -13 5 -11 0 -14 -3 -6 -6z"/>
<path d="M26 1745 c-9 -26 -7 -32 5 -12 6 10 9 21 6 23 -2 3 -7 -2 -11 -11z"/>
<path d="M2 1700 c0 -14 2 -19 5 -12 2 6 2 18 0 25 -3 6 -5 1 -5 -13z"/>
</g>
</svg>
